<svg width="34" height="34" viewBox="0 0 34 34" fill="none" xmlns="http://www.w3.org/2000/svg">
<rect width="34" height="34" rx="7" fill="#EEF0F3"/>
<path d="M24.689 17.1081C24.689 17.2757 24.6225 17.4364 24.504 17.5548C24.3855 17.6733 24.2248 17.7399 24.0573 17.7399H17.7397V24.0574C17.7397 24.225 17.6731 24.3857 17.5547 24.5042C17.4362 24.6226 17.2755 24.6892 17.1079 24.6892C16.9404 24.6892 16.7797 24.6226 16.6612 24.5042C16.5427 24.3857 16.4762 24.225 16.4762 24.0574V17.7399H10.1586C9.99106 17.7399 9.83037 17.6733 9.71189 17.5548C9.59342 17.4364 9.52686 17.2757 9.52686 17.1081C9.52686 16.9406 9.59342 16.7799 9.71189 16.6614C9.83037 16.5429 9.99106 16.4764 10.1586 16.4764H16.4762V10.1588C16.4762 9.99124 16.5427 9.83055 16.6612 9.71208C16.7797 9.5936 16.9404 9.52704 17.1079 9.52704C17.2755 9.52704 17.4362 9.5936 17.5547 9.71208C17.6731 9.83055 17.7397 9.99124 17.7397 10.1588V16.4764H24.0573C24.2248 16.4764 24.3855 16.5429 24.504 16.6614C24.6225 16.7799 24.689 16.9406 24.689 17.1081Z" fill="#3D6394"/>
</svg>
