<svg width="19" height="19" viewBox="0 0 19 19" fill="none" xmlns="http://www.w3.org/2000/svg">
<path d="M2.375 4.75H16.625" stroke="#3D6394" stroke-width="1.35" stroke-linecap="round" stroke-linejoin="round"/>
<path d="M15.0417 4.74992V15.8333C15.0417 16.2532 14.8748 16.6559 14.5779 16.9528C14.281 17.2498 13.8783 17.4166 13.4583 17.4166H5.54166C5.12174 17.4166 4.71901 17.2498 4.42208 16.9528C4.12514 16.6559 3.95833 16.2532 3.95833 15.8333V4.74992M6.33333 4.74992V3.16659C6.33333 2.74666 6.50014 2.34393 6.79708 2.047C7.09401 1.75007 7.49674 1.58325 7.91666 1.58325H11.0833C11.5033 1.58325 11.906 1.75007 12.2029 2.047C12.4998 2.34393 12.6667 2.74666 12.6667 3.16659V4.74992" stroke="#3D6394" stroke-width="1.35" stroke-linecap="round" stroke-linejoin="round"/>
</svg>
