<svg width="22" height="22" viewBox="0 0 22 22" fill="none" xmlns="http://www.w3.org/2000/svg">
<g clip-path="url(#clip0_402_1273)">
<path d="M18.9444 18.9443H3.05555C2.89348 18.9443 2.73804 19.0087 2.62343 19.1233C2.50883 19.2379 2.44444 19.3934 2.44444 19.5554C2.44444 19.7175 2.50883 19.873 2.62343 19.9876C2.73804 20.1022 2.89348 20.1666 3.05555 20.1666H18.9444C19.1065 20.1666 19.262 20.1022 19.3766 19.9876C19.4912 19.873 19.5556 19.7175 19.5556 19.5554C19.5556 19.3934 19.4912 19.2379 19.3766 19.1233C19.262 19.0087 19.1065 18.9443 18.9444 18.9443Z" fill="#3D6394"/>
<path d="M11 18.0154L17.4839 11.5316C17.584 11.4147 17.6363 11.2643 17.6304 11.1105C17.6244 10.9567 17.5607 10.8108 17.4518 10.7019C17.343 10.5931 17.1971 10.5293 17.0433 10.5234C16.8895 10.5175 16.7391 10.5698 16.6222 10.6699L11.6111 15.6749V3.05545C11.6111 2.89337 11.5467 2.73793 11.4321 2.62333C11.3175 2.50872 11.1621 2.44434 11 2.44434C10.8379 2.44434 10.6825 2.50872 10.5679 2.62333C10.4533 2.73793 10.3889 2.89337 10.3889 3.05545V15.6749L5.38389 10.6699C5.3291 10.6059 5.26169 10.554 5.18587 10.5173C5.11005 10.4806 5.02747 10.46 4.94331 10.4567C4.85915 10.4535 4.77522 10.4677 4.6968 10.4984C4.61838 10.5291 4.54716 10.5757 4.4876 10.6353C4.42804 10.6948 4.38144 10.7661 4.35072 10.8445C4.32 10.9229 4.30581 11.0068 4.30906 11.091C4.31232 11.1751 4.33293 11.2577 4.36961 11.3335C4.40629 11.4094 4.45825 11.4768 4.52222 11.5316L11 18.0154Z" fill="#3D6394"/>
</g>
<defs>
<clipPath id="clip0_402_1273">
<rect width="22" height="22" fill="white"/>
</clipPath>
</defs>
</svg>
