<svg width="21" height="21" viewBox="0 0 21 21" fill="none" xmlns="http://www.w3.org/2000/svg">
<g clip-path="url(#clip0_79_305)">
<path d="M17.5342 0.0656261C17.3783 0.0984383 17.0707 0.209181 16.8574 0.31172L16.4678 0.500391L11.2752 5.69707L6.07852 10.8896L5.29512 13.248C4.84805 14.6016 4.51172 15.6721 4.51172 15.7582C4.51172 16.1643 4.83574 16.4883 5.2377 16.4883C5.33203 16.4883 6.35742 16.1684 7.75195 15.7049L10.1104 14.9215L15.3029 9.7248L20.4996 4.53223L20.6883 4.14258C21.1025 3.28125 21.1025 2.45684 20.6842 1.59961C20.5283 1.27559 20.4381 1.15254 20.1428 0.857227C19.8475 0.557814 19.7285 0.47168 19.4004 0.315821C18.7729 0.016407 18.174 -0.0656242 17.5342 0.0656261ZM18.7031 1.64473C18.9738 1.77598 19.2076 1.99746 19.3512 2.27637C19.4455 2.45684 19.4619 2.53066 19.4619 2.87109C19.4619 3.20332 19.4455 3.29356 19.3635 3.46582C19.2814 3.62988 18.2396 4.69219 14.3062 8.63379L9.35156 13.5967L7.90781 14.0766C7.11621 14.3432 6.45996 14.5523 6.45176 14.5482C6.44766 14.54 6.65684 13.8879 6.91523 13.1004L7.39102 11.6689L12.2391 6.8168C14.901 4.14668 17.1527 1.90723 17.2389 1.8375C17.325 1.76777 17.5014 1.66524 17.6285 1.61191C17.9484 1.48067 18.3791 1.49297 18.7031 1.64473Z" fill="#3D6394"/>
<path d="M1.66529 1.5791C1.08697 1.73906 0.549668 2.16972 0.278965 2.69062C-0.0204494 3.26074 -0.00404313 2.6455 0.00826156 11.3695L0.0205662 19.2158L0.127207 19.4906C0.184629 19.6424 0.295371 19.8557 0.365098 19.9705C0.676816 20.4545 1.29205 20.8646 1.84576 20.959C2.03443 20.9918 4.17545 21 9.16705 20.9918L16.2217 20.9795L16.5047 20.8687C17.2512 20.5775 17.7885 19.9582 17.9444 19.2035C17.9977 18.9492 18.0059 18.3463 17.9977 14.9543L17.9854 11.0086L17.887 10.8609C17.6819 10.5656 17.3251 10.4344 17.0092 10.5369C16.8247 10.5984 16.5909 10.8568 16.5335 11.0619C16.5047 11.1644 16.4883 12.4769 16.4883 15.0609C16.4883 17.6736 16.476 18.941 16.4432 19.0189C16.3899 19.1584 16.2176 19.3471 16.07 19.425C15.9756 19.4742 14.9092 19.4824 8.99889 19.4824H2.03854L1.87037 19.384C1.77604 19.3307 1.66119 19.2117 1.60787 19.1215L1.51764 18.9574L1.52584 11.2096L1.53814 3.45761L1.65709 3.30586C1.72271 3.21972 1.84986 3.11308 1.9442 3.07207C2.10416 2.99824 2.30924 2.99414 6.75533 2.99414C9.93404 2.99414 11.4352 2.98183 11.5131 2.94902C11.788 2.84648 11.9807 2.56347 11.9848 2.25996C11.9848 1.98515 11.8577 1.75136 11.6362 1.62011L11.4557 1.51757L6.661 1.52168C2.76451 1.52578 1.82936 1.53398 1.66529 1.5791Z" fill="#3D6394"/>
</g>
<defs>
<clipPath id="clip0_79_305">
<rect width="21" height="21" fill="white"/>
</clipPath>
</defs>
</svg>
