<svg width="22" height="22" viewBox="0 0 22 22" fill="none" xmlns="http://www.w3.org/2000/svg">
<path d="M18.8633 11.8766C20.0223 10.7176 20.6734 9.1457 20.6734 7.50666C20.6734 5.86762 20.0223 4.29572 18.8633 3.13674C17.7043 1.97777 16.1324 1.32666 14.4934 1.32666C12.8543 1.32666 11.2824 1.97777 10.1234 3.13674L10.0633 3.1883L10.0117 3.24846C8.8816 4.3999 8.24894 5.94915 8.25 7.56252C8.24837 7.78358 8.25985 8.00454 8.28437 8.22424L1.85625 16.9899C1.66157 17.255 1.56839 17.5811 1.59362 17.9091C1.61885 18.2371 1.76081 18.5451 1.99375 18.7774L3.22265 20.0063C3.4549 20.2392 3.76295 20.3812 4.09091 20.4064C4.41888 20.4316 4.74502 20.3384 5.01015 20.1438L13.7758 13.7156C13.9955 13.7402 14.2164 13.7516 14.4375 13.75C16.0509 13.7511 17.6001 13.1184 18.7516 11.9883L18.8117 11.9367L18.8633 11.8766ZM19.25 7.56252C19.2513 8.60137 18.9133 9.61222 18.2875 10.4414L11.5586 3.71252C12.2728 3.1754 13.1226 2.84812 14.0125 2.76746C14.9025 2.68681 15.7973 2.85599 16.5964 3.25598C17.3955 3.65597 18.0672 4.27092 18.5359 5.03169C19.0047 5.79247 19.252 6.66892 19.25 7.56252ZM4.19375 19.0352L2.96484 17.8063L8.73125 9.95158C9.36025 11.4488 10.5512 12.6398 12.0484 13.2688L4.19375 19.0352ZM9.625 7.56252C9.62374 6.52367 9.9617 5.51282 10.5875 4.68362L17.3164 11.4125C16.6022 11.9496 15.7524 12.2769 14.8625 12.3576C13.9725 12.4382 13.0777 12.2691 12.2786 11.8691C11.4795 11.4691 10.8078 10.8541 10.3391 10.0934C9.87028 9.33258 9.623 8.45613 9.625 7.56252Z" fill="#3D6394"/>
</svg>
