<svg width="18" height="18" viewBox="0 0 18 18" fill="none" xmlns="http://www.w3.org/2000/svg">
<g clip-path="url(#clip0_402_1245)">
<path d="M8.13867 0.0386372C6.76758 0.165201 5.32969 0.639811 4.20469 1.34294C3.09375 2.03551 2.03554 3.09372 1.34297 4.20465C-0.147658 6.59528 -0.414846 9.75934 0.650389 12.4101C1.11094 13.5597 1.74375 14.5125 2.6332 15.3984C4.725 17.4867 7.68164 18.3832 10.6875 17.8418C12.4875 17.5183 14.0801 16.6851 15.3844 15.3843C16.6816 14.0836 17.5184 12.484 17.8418 10.6875C18.3832 7.68161 17.4867 4.72497 15.3984 2.63317C14.6988 1.93004 14.059 1.45895 13.2012 1.01598C11.6754 0.224966 9.88242 -0.123081 8.13867 0.0386372ZM9.7207 1.44137C12.3609 1.68747 14.6074 3.20973 15.7852 5.55817C17.0051 7.98395 16.8293 10.9828 15.3316 13.2363C14.2383 14.8886 12.5086 16.0453 10.5645 16.432C7.9418 16.9523 5.3332 16.1648 3.5332 14.305C0.935154 11.6226 0.689061 7.34411 2.95664 4.35231C3.2414 3.97965 3.80742 3.39606 4.16601 3.10426C5.7164 1.8527 7.70976 1.25504 9.7207 1.44137Z" fill="#3D6394"/>
<path d="M6.22266 3.32226C4.96758 3.94101 3.97969 4.91836 3.35391 6.16289C3.16055 6.55312 3.12891 6.64101 3.12891 6.80625C3.12891 7.27031 3.52969 7.59375 3.97266 7.48828C4.22227 7.42851 4.36992 7.27734 4.55273 6.89414C4.81641 6.35625 5.07656 5.99765 5.53711 5.53711C5.99766 5.07656 6.28945 4.86211 6.85547 4.57734C7.28086 4.3664 7.42852 4.22578 7.48828 3.97265C7.59375 3.5332 7.27031 3.1289 6.80977 3.1289C6.65156 3.1289 6.55664 3.16054 6.22266 3.32226Z" fill="#3D6394"/>
<path d="M8.47968 6.96087C8.09648 7.06282 7.82226 7.22103 7.52343 7.52337C7.21757 7.82571 7.06288 8.09642 6.96093 8.49368C6.83437 8.98939 6.89765 9.52728 7.14374 9.99485C7.2914 10.2796 7.7203 10.7085 8.00507 10.8562C8.47265 11.1023 9.01054 11.1656 9.50624 11.039C9.90351 10.937 10.1742 10.7824 10.4766 10.4765C10.7824 10.1742 10.9371 9.90345 11.0391 9.50618C11.1656 9.01048 11.1023 8.47259 10.8562 8.00501C10.7086 7.72024 10.2797 7.29134 9.99491 7.14368C9.53085 6.9011 8.97187 6.83431 8.47968 6.96087ZM9.38671 8.41634C9.59413 8.55345 9.68554 8.72923 9.68554 8.99993C9.68554 9.27415 9.59413 9.44642 9.37616 9.59056C9.17929 9.72064 8.83827 9.72767 8.63788 9.6011C8.37069 9.43587 8.24765 9.10892 8.32851 8.79603C8.37773 8.61673 8.59218 8.3847 8.76093 8.33548C8.94726 8.27923 9.23554 8.31439 9.38671 8.41634Z" fill="#3D6394"/>
<path d="M13.9852 10.5187C13.7777 10.575 13.6266 10.7437 13.4227 11.1445C13.1344 11.7141 12.9234 12.0059 12.4629 12.4629C12.0059 12.9234 11.7141 13.1344 11.1445 13.4227C10.7191 13.6371 10.5715 13.7777 10.5117 14.0273C10.4063 14.4703 10.7297 14.8711 11.1938 14.8711C11.359 14.8711 11.4469 14.8395 11.8371 14.6461C13.0816 14.0203 14.059 13.0324 14.6777 11.7773C14.8395 11.4434 14.8711 11.3484 14.8711 11.1902C14.8711 10.8598 14.6777 10.6031 14.3613 10.5152C14.1996 10.4695 14.1609 10.473 13.9852 10.5187Z" fill="#3D6394"/>
</g>
<defs>
<clipPath id="clip0_402_1245">
<rect width="18" height="18" fill="white"/>
</clipPath>
</defs>
</svg>
