<svg width="25" height="25" viewBox="0 0 25 25" fill="none" xmlns="http://www.w3.org/2000/svg">
<path fill-rule="evenodd" clip-rule="evenodd" d="M4.19163 8.34373V5.22915H1.08936V3.47677H4.19163V0.361328H5.93709V3.47677H9.04021V5.22915H5.93709V8.34373H4.19163ZM21.2723 3.55971L10.7563 3.56006L10.7564 5.20292L21.2723 5.20258C21.423 5.20257 21.5451 5.32516 21.5451 5.47639V15.6454C20.8751 15.1965 20.0456 14.931 19.1475 14.931C16.9222 14.931 15.1184 16.5609 15.1184 18.5715C15.1184 20.5823 16.9222 22.2122 19.1475 22.2122C21.3727 22.2122 23.1766 20.5823 23.1766 18.5715L23.1814 18.5709V5.47639C23.1814 4.41782 22.3267 3.55968 21.2723 3.55971ZM5.60355 20.2408C6.94402 20.2408 7.66906 19.3032 7.66906 18.5715C7.66906 17.8399 6.94402 16.9024 5.60355 16.9024C4.26309 16.9024 3.53806 17.8399 3.53806 18.5715C3.53806 19.3032 4.26309 20.2408 5.60355 20.2408ZM5.60355 22.2122C7.82879 22.2122 9.6327 20.5823 9.6327 18.5715L9.63268 18.5666L9.63271 8.76206H7.99634V15.6422C7.32722 15.1953 6.49954 14.931 5.60355 14.931C3.37833 14.931 1.57442 16.5609 1.57442 18.5715C1.57442 20.5823 3.37833 22.2122 5.60355 22.2122ZM19.1475 20.2408C20.488 20.2408 21.213 19.3032 21.213 18.5715C21.213 17.8399 20.488 16.9024 19.1475 16.9024C17.8071 16.9024 17.082 17.8399 17.082 18.5715C17.082 19.3032 17.8071 20.2408 19.1475 20.2408Z" fill="#90959B"/>
</svg>
