<svg width="25" height="25" viewBox="0 0 25 25" fill="none" xmlns="http://www.w3.org/2000/svg">
<path d="M11.5954 20.1991L11.5941 20.1979C8.89414 17.7495 6.72561 15.7783 5.22156 13.9382C3.72739 12.1102 2.98331 10.5218 2.98331 8.85417C2.98331 6.13354 5.10013 4.025 7.81248 4.025C9.35291 4.025 10.8463 4.74676 11.817 5.87782L12.5 6.67355L13.1829 5.87782C14.1537 4.74676 15.6471 4.025 17.1875 4.025C19.8998 4.025 22.0166 6.13354 22.0166 8.85417C22.0166 10.5218 21.2726 12.1102 19.7784 13.9382C18.2743 15.7783 16.1058 17.7495 13.4058 20.1979L13.4045 20.1991L12.5 21.0225L11.5954 20.1991Z" stroke="white" stroke-width="1.8"/>
</svg>
