<svg width="26" height="24" viewBox="0 0 26 24" fill="none" xmlns="http://www.w3.org/2000/svg">
<path d="M25.1831 11.803L13.6342 0.263C13.551 0.18 13.4523 0.112993 13.3435 0.0679932C13.2348 0.0229932 13.1182 0 13.0005 0C12.8828 0 12.7663 0.0229932 12.6575 0.0679932C12.5488 0.112993 12.45 0.18 12.3669 0.263L0.817871 11.803C0.481471 12.14 0.290771 12.597 0.290771 13.074C0.290771 14.063 1.09547 14.868 2.08517 14.868H3.30207V23.103C3.30207 23.599 3.70307 24 4.19927 24H11.2061V17.719H14.3464V24H21.8017C22.298 24 22.6989 23.599 22.6989 23.103V14.868H23.9158C24.3925 14.868 24.8495 14.68 25.1859 14.341C25.8841 13.64 25.8841 12.504 25.1831 11.803Z" fill="#90959B"/>
</svg>
