<svg width="25" height="25" viewBox="0 0 25 25" fill="none" xmlns="http://www.w3.org/2000/svg">
<path d="M18.1689 4.30166C17.8174 4.3749 17.5684 4.6874 17.5684 5.04873C17.5684 5.16592 17.5977 5.31729 17.627 5.38076C17.6611 5.43936 18.0273 5.83486 18.4473 6.25967L19.2041 7.02139L17.8174 7.04092C16.5039 7.06045 16.4063 7.07022 15.9424 7.19229C15.332 7.3583 14.5117 7.76357 13.9648 8.17373C13.3789 8.61318 12.4658 9.5751 11.8652 10.3759C11.5869 10.7519 11.3477 11.0692 11.3379 11.0839C11.3281 11.0985 11.2793 11.0546 11.2354 10.9862C10.6201 10.0487 9.41895 8.72061 8.69141 8.17373C8.14453 7.76357 7.32422 7.3583 6.71387 7.19229C6.24512 7.06533 6.17676 7.06045 4.92188 7.06045C3.68164 7.05557 3.61328 7.06045 3.48633 7.15811C3.22754 7.34854 3.14941 7.50479 3.14941 7.8124C3.14941 8.12002 3.22754 8.27627 3.48633 8.4667C3.6084 8.55947 3.71094 8.56924 4.84863 8.59854C5.76172 8.62295 6.15234 8.65225 6.35254 8.71084C7.54883 9.05264 8.61816 9.99502 9.94629 11.87C10.1709 12.1825 10.3516 12.4657 10.3516 12.4999C10.3516 12.5341 10.1855 12.8026 9.97559 13.1054C8.69629 14.9657 7.58789 15.9423 6.35742 16.2938C6.15234 16.3524 5.76172 16.3769 4.84863 16.4013C3.71094 16.4306 3.6084 16.4403 3.48633 16.5331C3.22754 16.7235 3.14941 16.8798 3.14941 17.1874C3.14941 17.495 3.22754 17.6513 3.48633 17.8417C3.61328 17.9394 3.68164 17.9442 4.94629 17.9394C6.22559 17.9394 6.29395 17.9345 6.74316 17.8075C8.29102 17.3827 9.64844 16.2743 11.0547 14.2968C11.1816 14.1112 11.3037 13.9647 11.3281 13.9647C11.3525 13.9647 11.4746 14.1112 11.6016 14.2968C12.7588 15.9276 13.96 17.0263 15.1465 17.539C15.9668 17.8905 16.2061 17.9296 17.793 17.954L19.2041 17.9784L18.4424 18.745C18.0273 19.1649 17.6611 19.5604 17.627 19.619C17.5049 19.8632 17.5684 20.2489 17.7686 20.4784C17.9688 20.7079 18.4082 20.7812 18.6816 20.6347C18.8477 20.5517 21.7432 17.6513 21.8213 17.495C21.8945 17.3485 21.8897 17.0116 21.8066 16.8554C21.7188 16.6942 18.8184 13.8036 18.6621 13.7206C18.418 13.5985 18.0322 13.662 17.8027 13.8622C17.5879 14.0526 17.5 14.497 17.627 14.7558C17.6611 14.8144 18.0273 15.2147 18.4473 15.6347L19.2139 16.4062H18.0566C16.7871 16.4062 16.416 16.3622 15.8447 16.1327C15.0928 15.83 14.1797 15.0683 13.418 14.1112C12.9736 13.5497 12.3047 12.5829 12.3047 12.4999C12.3047 12.4169 13.0322 11.3964 13.5303 10.7909C14.248 9.91201 14.9219 9.33096 15.6592 8.96475C16.2744 8.65713 16.4404 8.62783 17.8955 8.6083L19.2139 8.58877L18.4522 9.36025C18.0322 9.78506 17.6611 10.1854 17.627 10.244C17.5 10.5028 17.5879 10.9472 17.8027 11.1376C18.0469 11.3476 18.4229 11.4013 18.6816 11.2597C18.8477 11.1767 21.7432 8.27627 21.8213 8.12002C21.8945 7.97354 21.8897 7.63662 21.8066 7.48037C21.7676 7.40713 21.0596 6.67471 20.2295 5.84951C19.1309 4.75576 18.6865 4.34561 18.5791 4.32119C18.501 4.30166 18.4131 4.28213 18.3838 4.27725C18.3594 4.27236 18.2617 4.28213 18.1689 4.30166Z" fill="#90959B"/>
</svg>
