<svg width="24" height="24" viewBox="0 0 24 24" fill="none" xmlns="http://www.w3.org/2000/svg">
<path d="M20.3922 0.00876617C20.3189 0.0204535 20.2118 0.096426 20.1498 0.178243C20.0427 0.324344 20.0371 0.406159 20.0371 3.07104C20.0371 5.66579 20.0314 5.81773 19.9413 5.77682C19.0844 5.43202 18.1656 5.57228 17.5567 6.13915C16.8239 6.8229 16.8126 7.74626 17.5342 8.43001C18.5207 9.36506 20.2344 9.11376 20.8432 7.93911C20.9672 7.7112 20.9672 7.64691 20.9841 4.70152L21.001 1.69185L22.1397 2.87234C23.1995 3.96517 23.301 4.05283 23.487 4.05283C23.752 4.05283 23.9211 3.90089 23.9662 3.62622L24 3.40415L22.3765 1.71522C21.4858 0.791865 20.7023 0.0204535 20.6346 0.00876617C20.5726 -0.00292206 20.4599 -0.00292206 20.3922 0.00876617Z" fill="#90959B"/>
<path d="M10.8084 0.0363388C9.65558 0.16696 8.37214 0.490667 7.36698 0.916603C3.44852 2.58059 0.762395 6.05053 0.0979613 10.2928C-0.0326538 11.1333 -0.0326538 12.8428 0.0979613 13.6946C0.501164 16.3354 1.61991 18.573 3.47124 20.4414C5.36232 22.361 7.73611 23.5479 10.3995 23.9114C11.1378 24.0136 12.7108 24.0306 13.4207 23.9455C16.9189 23.5082 20.0196 21.6 21.9959 18.6639C23.0181 17.1419 23.6484 15.4608 23.9324 13.4959C24.0346 12.786 24.0176 11.0425 23.904 10.2928C23.6484 8.64021 23.0408 6.98759 22.2117 5.68139L21.9675 5.28953L21.9391 6.43103L21.9107 7.56686L21.7006 7.99847C21.428 8.54935 20.9737 9.00368 20.4342 9.2706C19.1905 9.87826 17.7764 9.68517 16.7997 8.77083C15.7207 7.75995 15.7207 6.22659 16.7997 5.2157C17.3392 4.71026 18.1853 4.35815 18.8611 4.35247H19.0428V3.30751V2.25688L18.5772 1.9502C17.1745 1.03586 15.6355 0.433878 13.9602 0.149921C13.1708 0.0136223 11.558 -0.043169 10.8084 0.0363388ZM12.1997 2.36478C12.3701 2.42725 12.5064 2.70553 12.4666 2.90998C12.4212 3.17122 12.2281 3.25072 11.5921 3.29616C8.72992 3.47789 6.29366 4.86927 4.73764 7.19204C3.90284 8.44144 3.44284 9.81579 3.31223 11.4287C3.27816 11.8262 3.22705 12.1953 3.19297 12.2521C3.05668 12.5134 2.66483 12.5475 2.45471 12.326C2.3241 12.1897 2.31842 12.1442 2.33545 11.582C2.38089 9.72493 3.08507 7.75995 4.25493 6.19251C5.64626 4.33544 7.73611 3.00084 9.99632 2.52947C10.9333 2.33638 11.9215 2.26256 12.1997 2.36478ZM13.1027 7.50439C14.017 7.74859 14.5962 8.08366 15.2664 8.7538C15.8342 9.32739 16.1636 9.84419 16.3965 10.5427C17.2199 13.0131 15.8229 15.6767 13.3071 16.4604C12.9323 16.574 12.7676 16.591 11.9726 16.591C11.1264 16.5853 11.0299 16.574 10.6096 16.432C9.10472 15.9038 8.02573 14.8191 7.58278 13.3709C6.85019 10.9971 8.12227 8.46416 10.4677 7.63501C11.2514 7.35673 12.3474 7.29994 13.1027 7.50439ZM21.3939 11.565C21.6778 11.6729 21.729 11.883 21.6551 12.7178C21.4564 15.1258 20.4853 17.2214 18.8043 18.874C18.1683 19.4987 17.9866 19.652 17.271 20.1234C15.8797 21.0434 14.2044 21.5886 12.5802 21.6568C11.8476 21.6908 11.8249 21.6852 11.6886 21.5602C11.5069 21.3899 11.4955 21.0434 11.6546 20.8844C11.7852 20.7538 11.9328 20.7254 12.7108 20.68C14.1022 20.6005 15.6014 20.078 16.8905 19.2261C17.6288 18.7377 18.7305 17.6246 19.2302 16.8749C20.1048 15.546 20.5648 14.2114 20.6897 12.5986C20.7635 11.7297 20.7692 11.7013 20.9623 11.5934C21.144 11.4968 21.2065 11.4911 21.3939 11.565Z" fill="#90959B"/>
<path d="M11.3231 10.0879C9.98149 10.583 9.56261 12.2823 10.5218 13.3521C10.6796 13.5293 10.9406 13.731 11.141 13.8288C11.4384 13.9755 11.5599 14 12.003 14C12.4462 14 12.5676 13.9755 12.865 13.8288C13.3021 13.6149 13.7149 13.1565 13.8849 12.698C14.061 12.2334 14.0306 11.5611 13.8242 11.1209C13.6178 10.6992 13.1686 10.2774 12.7618 10.1246C12.3672 9.97176 11.6752 9.95954 11.3231 10.0879Z" fill="#90959B"/>
</svg>
