<svg width="20" height="20" viewBox="0 0 20 20" fill="none" xmlns="http://www.w3.org/2000/svg">
<path d="M16.5833 7.33333H13.3958V4.87037C13.3958 3.84388 12.9854 2.85944 12.2548 2.13361C11.5242 1.40777 10.5332 1 9.5 1C8.46676 1 7.47584 1.40777 6.74523 2.13361C6.01462 2.85944 5.60417 3.84388 5.60417 4.87037V7.33333H2.41667C2.04094 7.33333 1.68061 7.48161 1.41493 7.74555C1.14926 8.00949 1 8.36747 1 8.74074V18.5926C1 18.9659 1.14926 19.3238 1.41493 19.5878C1.68061 19.8517 2.04094 20 2.41667 20H16.5833C16.9591 20 17.3194 19.8517 17.5851 19.5878C17.8507 19.3238 18 18.9659 18 18.5926V8.74074C18 8.36747 17.8507 8.00949 17.5851 7.74555C17.3194 7.48161 16.9591 7.33333 16.5833 7.33333ZM7.02083 4.87037C7.02083 4.21715 7.28203 3.59069 7.74696 3.12879C8.2119 2.6669 8.84248 2.40741 9.5 2.40741C10.1575 2.40741 10.7881 2.6669 11.253 3.12879C11.718 3.59069 11.9792 4.21715 11.9792 4.87037V7.33333H7.02083V4.87037ZM16.5833 18.5926H2.41667V8.74074H16.5833V18.5926Z" fill="#3D6394"/>
</svg>
