<svg width="18" height="18" viewBox="0 0 18 18" fill="none" xmlns="http://www.w3.org/2000/svg">
<path fill-rule="evenodd" clip-rule="evenodd" d="M1.99984 0.333332C1.64622 0.333332 1.30708 0.473808 1.05703 0.723856C0.80698 0.973905 0.666504 1.31304 0.666504 1.66667V16.3333C0.666504 16.687 0.80698 17.0261 1.05703 17.2761C1.30708 17.5262 1.64622 17.6667 1.99984 17.6667H11.9998C12.1766 17.6667 12.3462 17.5964 12.4712 17.4714C12.5963 17.3464 12.6665 17.1768 12.6665 17C12.6665 16.8232 12.5963 16.6536 12.4712 16.5286C12.3462 16.4036 12.1766 16.3333 11.9998 16.3333H1.99984V1.66667H11.9998C12.1766 1.66667 12.3462 1.59643 12.4712 1.4714C12.5963 1.34638 12.6665 1.17681 12.6665 0.999999C12.6665 0.823188 12.5963 0.653618 12.4712 0.528594C12.3462 0.40357 12.1766 0.333332 11.9998 0.333332H1.99984ZM14.8052 5.528C14.68 5.40282 14.5102 5.33249 14.3332 5.33249C14.1561 5.33249 13.9864 5.40282 13.8612 5.528C13.736 5.65318 13.6657 5.82296 13.6657 6C13.6657 6.17703 13.736 6.34682 13.8612 6.472L15.7238 8.33333H6.6665C6.48969 8.33333 6.32012 8.40357 6.1951 8.52859C6.07008 8.65362 5.99984 8.82319 5.99984 9C5.99984 9.17681 6.07008 9.34638 6.1951 9.4714C6.32012 9.59643 6.48969 9.66667 6.6665 9.66667H15.7238L13.8612 11.528C13.736 11.6532 13.6657 11.823 13.6657 12C13.6657 12.177 13.736 12.3468 13.8612 12.472C13.9864 12.5972 14.1561 12.6675 14.3332 12.6675C14.5102 12.6675 14.68 12.5972 14.8052 12.472L17.8052 9.472C17.8673 9.41007 17.9165 9.3365 17.9501 9.25551C17.9837 9.17452 18.001 9.08769 18.001 9C18.001 8.91231 17.9837 8.82548 17.9501 8.74449C17.9165 8.66349 17.8673 8.58993 17.8052 8.528L14.8052 5.528Z" fill="black"/>
</svg>
