<svg width="20" height="25" viewBox="0 0 20 25" fill="none" xmlns="http://www.w3.org/2000/svg">
<path fill-rule="evenodd" clip-rule="evenodd" d="M18 6C18 7.933 16.433 9.5 14.5 9.5C13.994 9.5 13.5131 9.39262 13.0788 9.19941L8.98816 13.29C8.984 13.3406 8.97877 13.391 8.97249 13.441L12.3585 16.2314C12.9504 15.7729 13.6933 15.5 14.5 15.5C16.433 15.5 18 17.067 18 19C18 20.933 16.433 22.5 14.5 22.5C12.567 22.5 11 20.933 11 19C11 18.3436 11.1807 17.7294 11.4951 17.2044L8.52692 14.7583C7.92058 15.7999 6.79205 16.5 5.5 16.5C3.567 16.5 2 14.933 2 13C2 11.067 3.567 9.5 5.5 9.5C6.97065 9.5 8.22944 10.407 8.74749 11.6922L11.9952 8.44454C11.3794 7.8137 11 6.95116 11 6C11 4.067 12.567 2.5 14.5 2.5C16.433 2.5 18 4.067 18 6Z" fill="white"/>
</svg>
