<svg width="20" height="20" viewBox="0 0 20 20" fill="none" xmlns="http://www.w3.org/2000/svg">
<rect x="0.65" y="0.65" width="18.7" height="18.7" rx="9.35" fill="white"/>
<path d="M9.344 11.906L9.092 5.2H10.674L10.408 11.906H9.344ZM9.89 15.084C9.62867 15.084 9.40933 14.9953 9.232 14.818C9.05467 14.6407 8.966 14.4307 8.966 14.188C8.966 13.9267 9.05467 13.712 9.232 13.544C9.40933 13.376 9.62867 13.292 9.89 13.292C10.1513 13.292 10.366 13.376 10.534 13.544C10.702 13.712 10.786 13.9267 10.786 14.188C10.786 14.4307 10.702 14.6407 10.534 14.818C10.366 14.9953 10.1513 15.084 9.89 15.084Z" fill="#3D6394"/>
<rect x="0.65" y="0.65" width="18.7" height="18.7" rx="9.35" stroke="#3D6394" stroke-width="1.3"/>
</svg>
