<svg width="18" height="16" viewBox="0 0 18 16" fill="none" xmlns="http://www.w3.org/2000/svg">
<path fill-rule="evenodd" clip-rule="evenodd" d="M15.6667 1.30612C15.9319 1.30612 16.1862 1.40933 16.3738 1.59304C16.5613 1.77675 16.6667 2.02591 16.6667 2.28571V13.7143C16.6667 13.9741 16.5613 14.2233 16.3738 14.407C16.1862 14.5907 15.9319 14.6939 15.6667 14.6939H2.33333C2.06812 14.6939 1.81376 14.5907 1.62623 14.407C1.43869 14.2233 1.33333 13.9741 1.33333 13.7143V4.73469C1.33333 4.47489 1.43869 4.22573 1.62623 4.04202C1.81376 3.85831 2.06812 3.7551 2.33333 3.7551H9.83333C10.0562 3.7551 10.2644 3.64597 10.388 3.46429L11.8568 1.30612H15.6667ZM17.3166 0.66947C16.879 0.240815 16.2855 0 15.6667 0H11.5C11.2771 0 11.0689 0.109127 10.9453 0.290808L9.47654 2.44898H2.33333C1.71449 2.44898 1.121 2.6898 0.683418 3.11845C0.245833 3.5471 0 4.12848 0 4.73469V13.7143C0 14.3205 0.245833 14.9019 0.683418 15.3305C1.121 15.7592 1.71449 16 2.33333 16H15.6667C16.2855 16 16.879 15.7592 17.3166 15.3305C17.7542 14.9019 18 14.3205 18 13.7143V2.28571C18 1.67951 17.7542 1.09812 17.3166 0.66947ZM12.75 11.3125C12.75 11.9341 12.12 12.4375 11.3438 12.4375C10.5675 12.4375 9.9375 11.9341 9.9375 11.3125C9.9375 10.6909 10.5675 10.1875 11.3438 10.1875C11.6602 10.1875 11.9524 10.2712 12.1875 10.4124V6.81249V5.6875V5.58624C12.1876 5.45626 12.2327 5.33031 12.3151 5.22981C12.3976 5.12931 12.5123 5.06047 12.6397 5.035L14.3272 4.69749C14.4088 4.68119 14.493 4.68318 14.5737 4.70333C14.6544 4.72347 14.7297 4.76127 14.794 4.81399C14.8584 4.86672 14.9102 4.93306 14.9458 5.00824C14.9814 5.08341 14.9999 5.16556 15 5.24874V6.24999L12.75 6.69999V11.3125ZM5.08238 11.2699C5.02963 11.3226 5 11.3942 5 11.4688C5 11.5433 5.02963 11.6149 5.08238 11.6676C5.13512 11.7204 5.20666 11.75 5.28125 11.75H7.25C7.32459 11.75 7.39613 11.7204 7.44887 11.6676C7.50162 11.6149 7.53125 11.5433 7.53125 11.4688C7.53125 11.3942 7.50162 11.3226 7.44887 11.2699C7.39613 11.2171 7.32459 11.1875 7.25 11.1875H5.28125C5.20666 11.1875 5.13512 11.2171 5.08238 11.2699ZM5.08238 9.01988C5.02963 9.07262 5 9.14416 5 9.21875C5 9.29334 5.02963 9.36488 5.08238 9.41762C5.13512 9.47037 5.20666 9.5 5.28125 9.5H9.5C9.57459 9.5 9.64613 9.47037 9.69887 9.41762C9.75162 9.36488 9.78125 9.29334 9.78125 9.21875C9.78125 9.14416 9.75162 9.07262 9.69887 9.01988C9.64613 8.96713 9.57459 8.9375 9.5 8.9375H5.28125C5.20666 8.9375 5.13512 8.96713 5.08238 9.01988ZM5.08238 6.76988C5.02963 6.82262 5 6.89416 5 6.96875C5 7.04334 5.02963 7.11488 5.08238 7.16762C5.13512 7.22037 5.20666 7.25 5.28125 7.25H9.5C9.57459 7.25 9.64613 7.22037 9.69887 7.16762C9.75162 7.11488 9.78125 7.04334 9.78125 6.96875C9.78125 6.89416 9.75162 6.82262 9.69887 6.76988C9.64613 6.71713 9.57459 6.6875 9.5 6.6875H5.28125C5.20666 6.6875 5.13512 6.71713 5.08238 6.76988Z" fill="#3D6394"/>
</svg>
