<svg width="18" height="18" viewBox="0 0 18 18" fill="none" xmlns="http://www.w3.org/2000/svg">
<path d="M9.78338 15.6601L9.78343 15.66L9.77649 15.6536L6.0914 12.2221L5.9253 12.0675L5.70005 12.0397L2.84388 11.6874C2.70066 11.6681 2.5713 11.5984 2.4782 11.4927C2.38607 11.3882 2.33562 11.2533 2.33636 11.1132H2.33637V11.1095V7.70589H2.33638L2.33636 7.7022C2.33563 7.56275 2.38566 7.42801 2.479 7.32171L2.47911 7.32158C2.57145 7.21637 2.70098 7.1467 2.84276 7.12803L5.70004 6.7757L5.9253 6.74792L6.0914 6.59325L9.77392 3.16416C9.77408 3.16401 9.77424 3.16386 9.7744 3.16372C9.77977 3.15894 9.78607 3.15603 9.79236 3.15498C9.79653 3.15428 9.80354 3.15419 9.8131 3.15785C9.82057 3.16162 9.82341 3.16545 9.82409 3.16653L9.82408 3.16654L9.8271 3.17119C9.82871 3.17366 9.82932 3.17639 9.82928 3.17817L9.82918 3.17817V3.19031V15.6242H9.82915L9.8292 15.6301C9.82924 15.6338 9.82891 15.6362 9.82866 15.6375L9.82817 15.6394L9.82732 15.6414C9.82587 15.645 9.82401 15.6479 9.82067 15.6513L9.82064 15.6512L9.81539 15.6566C9.81467 15.6571 9.81252 15.6586 9.80842 15.6605C9.80204 15.6628 9.79688 15.6636 9.79352 15.6638C9.79065 15.6636 9.78859 15.6631 9.78721 15.6625C9.78563 15.6619 9.78445 15.6611 9.78338 15.6601Z" stroke="#90959B" stroke-width="1.4"/>
</svg>
