<svg width="18" height="18" viewBox="0 0 18 18" fill="none" xmlns="http://www.w3.org/2000/svg">
<path d="M14.3019 3.28505C14.0719 3.33951 13.9025 3.50896 13.8359 3.74799C13.7784 3.96887 13.8208 4.09596 14.0991 4.51654C14.9101 5.73594 15.3548 7.21252 15.4033 8.83737C15.4577 10.6528 15.0008 12.3564 14.0991 13.7028C13.9569 13.9146 13.8268 14.1416 13.8087 14.2081C13.7482 14.4351 13.8571 14.7044 14.078 14.8587C14.196 14.9404 14.2293 14.9495 14.4411 14.9495C14.6438 14.9495 14.6922 14.9374 14.7981 14.8678C15.0553 14.6983 15.7452 13.4971 16.0296 12.7255C16.4653 11.5364 16.6529 10.4562 16.6529 9.13995C16.6529 7.82373 16.4653 6.74352 16.0296 5.55439C15.7996 4.92805 15.1703 3.78128 14.8858 3.47265C14.7527 3.32438 14.4895 3.23966 14.3019 3.28505Z" fill="#90959B"/>
<path d="M12.7376 5.34866C12.5651 5.39707 12.3503 5.62098 12.2958 5.80858C12.2383 6.01433 12.2807 6.15049 12.5076 6.49543C12.8435 7.00679 13.0613 7.56354 13.1763 8.205C13.2701 8.71334 13.2701 9.53635 13.1763 10.0447C13.0613 10.6922 12.8465 11.2338 12.4955 11.7724C12.2807 12.1052 12.2413 12.2384 12.2958 12.4351C12.4047 12.8284 12.8495 13.0251 13.2066 12.8375C13.3881 12.7407 13.6332 12.3987 13.8965 11.8632C14.3836 10.8828 14.5984 9.77236 14.5107 8.6619C14.4411 7.79047 14.2595 7.11269 13.8965 6.3865C13.4577 5.49995 13.1582 5.2367 12.7376 5.34866Z" fill="#90959B"/>
<path d="M9.78338 15.6601L9.78343 15.66L9.77649 15.6536L6.0914 12.2221L5.9253 12.0675L5.70005 12.0397L2.84388 11.6874C2.70066 11.6681 2.5713 11.5984 2.4782 11.4927C2.38607 11.3882 2.33562 11.2533 2.33636 11.1132H2.33637V11.1095V7.70589H2.33638L2.33636 7.7022C2.33563 7.56275 2.38566 7.42801 2.479 7.32171L2.47911 7.32158C2.57145 7.21637 2.70098 7.1467 2.84276 7.12803L5.70004 6.7757L5.9253 6.74792L6.0914 6.59325L9.77392 3.16416C9.77408 3.16401 9.77424 3.16386 9.7744 3.16372C9.77977 3.15894 9.78607 3.15603 9.79236 3.15498C9.79653 3.15428 9.80354 3.15419 9.8131 3.15785C9.82057 3.16162 9.82341 3.16545 9.82409 3.16653L9.82408 3.16654L9.8271 3.17119C9.82871 3.17366 9.82932 3.17639 9.82928 3.17817L9.82918 3.17817V3.19031V15.6242H9.82915L9.8292 15.6301C9.82924 15.6338 9.82891 15.6362 9.82866 15.6375L9.82817 15.6394L9.82732 15.6414C9.82587 15.645 9.82401 15.6479 9.82067 15.6513L9.82064 15.6512L9.81539 15.6566C9.81467 15.6571 9.81252 15.6586 9.80842 15.6605C9.80204 15.6628 9.79688 15.6636 9.79352 15.6638C9.79065 15.6636 9.78859 15.6631 9.78721 15.6625C9.78563 15.6619 9.78445 15.6611 9.78338 15.6601Z" stroke="#90959B" stroke-width="1.4"/>
</svg>
